solid OpenSCAD_Model
  facet normal -1 0 0
    outer loop
      vertex 0 16 0
      vertex 0 81 45
      vertex 0 81 0
    endloop
  endfacet
  facet normal -1 -0 0
    outer loop
      vertex 0 81 45
      vertex 0 16 0
      vertex 0 16 45
    endloop
  endfacet
  facet normal 0 0 1
    outer loop
      vertex 140 81 45
      vertex 136 77 45
      vertex 140 16 45
    endloop
  endfacet
  facet normal 0 0 1
    outer loop
      vertex 140 81 45
      vertex 4 77 45
      vertex 136 77 45
    endloop
  endfacet
  facet normal -0 0 1
    outer loop
      vertex 0 81 45
      vertex 4 77 45
      vertex 140 81 45
    endloop
  endfacet
  facet normal 0 0 1
    outer loop
      vertex 0 16 45
      vertex 4 77 45
      vertex 0 81 45
    endloop
  endfacet
  facet normal 0 0 1
    outer loop
      vertex 4 77 45
      vertex 0 16 45
      vertex 4 16 45
    endloop
  endfacet
  facet normal 0 0 1
    outer loop
      vertex 140 16 45
      vertex 136 77 45
      vertex 136 16 45
    endloop
  endfacet
  facet normal 1 -0 0
    outer loop
      vertex 140 16 45
      vertex 140 81 0
      vertex 140 81 45
    endloop
  endfacet
  facet normal 1 0 0
    outer loop
      vertex 140 81 0
      vertex 140 16 45
      vertex 140 16 0
    endloop
  endfacet
  facet normal 0 1 -0
    outer loop
      vertex 140 81 0
      vertex 0 81 45
      vertex 140 81 45
    endloop
  endfacet
  facet normal 0 1 0
    outer loop
      vertex 0 81 45
      vertex 140 81 0
      vertex 0 81 0
    endloop
  endfacet
  facet normal 0 0 -1
    outer loop
      vertex 4 16 0
      vertex 0 16 0
      vertex 4 77 0
    endloop
  endfacet
  facet normal 0 0 -1
    outer loop
      vertex 136 77 0
      vertex 140 16 0
      vertex 136 16 0
    endloop
  endfacet
  facet normal 0 0 -1
    outer loop
      vertex 140 16 0
      vertex 136 77 0
      vertex 140 81 0
    endloop
  endfacet
  facet normal 0 0 -1
    outer loop
      vertex 4 77 0
      vertex 140 81 0
      vertex 136 77 0
    endloop
  endfacet
  facet normal 0 0 -1
    outer loop
      vertex 4 77 0
      vertex 0 81 0
      vertex 140 81 0
    endloop
  endfacet
  facet normal 0 0 -1
    outer loop
      vertex 0 81 0
      vertex 4 77 0
      vertex 0 16 0
    endloop
  endfacet
  facet normal 0 -1 0
    outer loop
      vertex 0 16 0
      vertex 4 16 45
      vertex 0 16 45
    endloop
  endfacet
  facet normal 0 -1 -0
    outer loop
      vertex 4 16 45
      vertex 0 16 0
      vertex 4 16 0
    endloop
  endfacet
  facet normal 0 -1 0
    outer loop
      vertex 136 16 0
      vertex 140 16 45
      vertex 136 16 45
    endloop
  endfacet
  facet normal 0 -1 -0
    outer loop
      vertex 140 16 45
      vertex 136 16 0
      vertex 140 16 0
    endloop
  endfacet
  facet normal 1 -0 0
    outer loop
      vertex 4 16 45
      vertex 4 77 0
      vertex 4 77 45
    endloop
  endfacet
  facet normal 1 0 0
    outer loop
      vertex 4 77 0
      vertex 4 16 45
      vertex 4 16 0
    endloop
  endfacet
  facet normal -1 0 0
    outer loop
      vertex 136 16 0
      vertex 136 77 45
      vertex 136 77 0
    endloop
  endfacet
  facet normal -1 -0 0
    outer loop
      vertex 136 77 45
      vertex 136 16 0
      vertex 136 16 45
    endloop
  endfacet
  facet normal 0 -1 0
    outer loop
      vertex 4 77 0
      vertex 136 77 45
      vertex 4 77 45
    endloop
  endfacet
  facet normal 0 -1 -0
    outer loop
      vertex 136 77 45
      vertex 4 77 0
      vertex 136 77 0
    endloop
  endfacet
endsolid OpenSCAD_Model
